<svg width="20" height="20" xmlns="http://www.w3.org/2000/svg" preserveAspectRatio="xMidYMid meet">

 <g>
  <title>Layer 1</title>
  <g>
   <path d="m6.13,2.79301a3.91,3.91 0 0 1 2.37,-0.793c0.24,0 0.431,0.125 0.542,0.211c0.124,0.098 0.24,0.223 0.344,0.348a0.5,0.5 0 0 1 0.114,0.318l0,3.623l-1.085,0a1.5,1.5 0 1 0 0,1l1.085,0l0,9.415a0.5,0.5 0 0 1 -0.183,0.387c-0.462,0.378 -1.08,0.698 -1.817,0.698c-1.186,0 -2.069,-0.598 -2.64,-1.313a4.057,4.057 0 0 1 -0.819,-1.752a2.68,2.68 0 0 1 -1.054,-0.555c-0.552,-0.473 -0.987,-1.24 -0.987,-2.38c0,-0.557 0.037,-1.06 0.12,-1.5l3.13,0c0.636,0 1.16,0.475 1.24,1.089a1.5,1.5 0 1 0 1.004,-0.006a2.25,2.25 0 0 0 -2.244,-2.083l-2.809,0c0.153,-0.298 0.358,-0.55 0.625,-0.729a1.58,1.58 0 0 1 0.212,-0.118c-0.284,-0.832 -0.21,-1.806 0.064,-2.571c0.175,-0.492 0.453,-0.957 0.835,-1.267c0.252,-0.205 0.552,-0.34 0.88,-0.366c0.144,-0.683 0.549,-1.248 1.074,-1.656l-0.001,0zm4.37,11.707l0.75,0a2.25,2.25 0 0 0 2.25,-2.25l0,-1.835a1.5,1.5 0 1 0 -1,0l0,1.835c0,0.69 -0.56,1.25 -1.25,1.25l-0.75,0l0,-10.623a0.5,0.5 0 0 1 0.114,-0.318c0.103,-0.125 0.22,-0.25 0.344,-0.348c0.11,-0.086 0.301,-0.211 0.542,-0.211a3.91,3.91 0 0 1 2.37,0.793c0.525,0.408 0.93,0.973 1.073,1.656c0.328,0.025 0.628,0.161 0.88,0.366c0.382,0.31 0.66,0.775 0.835,1.267c0.274,0.765 0.348,1.74 0.064,2.57c0.072,0.034 0.143,0.074 0.212,0.12c0.275,0.183 0.484,0.445 0.638,0.754c0.303,0.605 0.428,1.449 0.428,2.474c0,1.141 -0.435,1.907 -0.987,2.38a2.68,2.68 0 0 1 -1.054,0.555c-0.1,0.558 -0.38,1.204 -0.819,1.752c-0.57,0.715 -1.454,1.313 -2.64,1.313c-0.736,0 -1.355,-0.32 -1.816,-0.698a0.5,0.5 0 0 1 -0.184,-0.387l0,-2.415zm-3.5,-8a0.5,0.5 0 1 0 0,1a0.5,0.5 0 0 0 0,-1zm0,6a0.5,0.5 0 1 0 0,1a0.5,0.5 0 0 0 0,-1zm6,-3a0.5,0.5 0 1 0 0,-1a0.5,0.5 0 0 0 0,1z" fill="currentColor"/>
  </g>
 </g>
</svg>