<?xml version="1.0" encoding="UTF-8" standalone="no"?>
<svg
   fill="#000000"
   viewBox="0 0 26 26"
   width="52px"
   height="52px"
   version="1.1"
   id="svg4"
   sodipodi:docname="cross.svg"
   inkscape:version="1.1.2 (b8e25be833, 2022-02-05)"
   xmlns:inkscape="http://www.inkscape.org/namespaces/inkscape"
   xmlns:sodipodi="http://sodipodi.sourceforge.net/DTD/sodipodi-0.dtd"
   xmlns="http://www.w3.org/2000/svg"
   xmlns:svg="http://www.w3.org/2000/svg">
  <defs
     id="defs8" />
  <sodipodi:namedview
     id="namedview6"
     pagecolor="#ffffff"
     bordercolor="#666666"
     borderopacity="1.0"
     inkscape:pageshadow="2"
     inkscape:pageopacity="0.0"
     inkscape:pagecheckerboard="0"
     showgrid="false"
     inkscape:zoom="15.980769"
     inkscape:cx="25.968713"
     inkscape:cy="26.031288"
     inkscape:window-width="1920"
     inkscape:window-height="1017"
     inkscape:window-x="-8"
     inkscape:window-y="-8"
     inkscape:window-maximized="1"
     inkscape:current-layer="svg4" />
  <path
     d="M 21.734375 19.640625 L 19.636719 21.734375 C 19.253906 22.121094 18.628906 22.121094 18.242188 21.734375 L 13 16.496094 L 7.761719 21.734375 C 7.375 22.121094 6.746094 22.121094 6.363281 21.734375 L 4.265625 19.640625 C 3.878906 19.253906 3.878906 18.628906 4.265625 18.242188 L 9.503906 13 L 4.265625 7.761719 C 3.882813 7.371094 3.882813 6.742188 4.265625 6.363281 L 6.363281 4.265625 C 6.746094 3.878906 7.375 3.878906 7.761719 4.265625 L 13 9.507813 L 18.242188 4.265625 C 18.628906 3.878906 19.257813 3.878906 19.636719 4.265625 L 21.734375 6.359375 C 22.121094 6.746094 22.121094 7.375 21.738281 7.761719 L 16.496094 13 L 21.734375 18.242188 C 22.121094 18.628906 22.121094 19.253906 21.734375 19.640625 Z"
     id="path2"
     style="fill:#000000" />
</svg>
