<?xml version="1.0" encoding="UTF-8" standalone="no"?>
<svg
   width="512"
   height="512"
   preserveAspectRatio="xMidYMid"
   viewBox="0 0 512 512"
   style="-ms-transform:rotate(360deg);-webkit-transform:rotate(360deg)"
   version="1.1"
   id="svg6"
   sodipodi:docname="globe.svg"
   inkscape:version="1.2.1 (9c6d41e410, 2022-07-14, custom)"
   inkscape:export-filename="globe.jpg"
   inkscape:export-xdpi="96"
   inkscape:export-ydpi="96"
   xmlns:inkscape="http://www.inkscape.org/namespaces/inkscape"
   xmlns:sodipodi="http://sodipodi.sourceforge.net/DTD/sodipodi-0.dtd"
   xmlns="http://www.w3.org/2000/svg"
   xmlns:svg="http://www.w3.org/2000/svg">
  <defs
     id="defs10" />
  <sodipodi:namedview
     id="namedview8"
     pagecolor="#ffffff"
     bordercolor="#000000"
     borderopacity="0.25"
     inkscape:showpageshadow="2"
     inkscape:pageopacity="0.0"
     inkscape:pagecheckerboard="0"
     inkscape:deskcolor="#d1d1d1"
     showgrid="false"
     inkscape:zoom="1.0799951"
     inkscape:cx="287.5013"
     inkscape:cy="262.03822"
     inkscape:window-width="1920"
     inkscape:window-height="1011"
     inkscape:window-x="0"
     inkscape:window-y="0"
     inkscape:window-maximized="1"
     inkscape:current-layer="svg6" />
  <rect
     style="fill:#161616;fill-opacity:1;stroke:none;stroke-width:43.5234;stroke-linecap:square"
     id="rect1808"
     width="464.24783"
     height="464.24783"
     x="23.876083"
     y="23.876083"
     ry="232.12392" />
  <path
     fill="currentColor"
     d="m 256,76.046951 a 179.95305,179.95305 0 1 0 0,359.906099 179.95305,179.95305 0 0 0 0,-359.906099 z M 121.93496,173.35656 c 7.3106,29.8947 56.95515,57.1351 83.61069,71.75628 10.79719,5.91596 17.83785,9.76245 16.71314,10.88718 -1.79954,1.79942 -3.64405,3.55407 -5.44358,5.2636 -9.35756,8.9077 -17.70288,16.84811 -17.05055,28.4776 0.78728,14.26126 13.90138,18.53516 27.30788,22.87652 12.97911,4.22889 26.27314,8.54774 28.92746,22.1117 1.84443,9.38008 -1.6872,22.22421 -4.94872,34.19111 -4.83624,17.59041 -9.13262,33.2913 4.94872,33.2913 33.7412,-11.24707 85.4327,-71.6663 89.97651,-112.47063 3.1042,-27.96022 -44.98827,-44.98828 -78.72944,-56.23535 -10.75222,-3.59906 -16.98308,1.82203 -22.2692,6.38834 -3.86899,3.37412 -7.24311,6.27586 -11.47201,4.85873 -10.00989,-3.32913 -56.23533,-44.98826 -33.7412,-56.23533 17.54542,-8.77271 21.41441,-3.8465 27.6003,4.09393 1.75454,2.22692 3.66655,4.67878 6.1409,7.15314 13.69892,6.83821 14.89111,-2.96923 16.26326,-14.23879 0.87727,-7.24311 1.82202,-15.09356 6.23088,-19.50241 9.76243,-9.76245 28.45506,-17.79286 45.61808,-25.19343 16.01582,-6.8832 30.70451,-13.20405 35.51824,-19.79484 a 157.45892,157.45892 0 1 1 -215.20136,52.34385 z"
     id="path2"
     style="fill:#ffffff;fill-opacity:1;stroke:#ffffff;stroke-width:0;stroke-opacity:1;stroke-dasharray:none" />
</svg>
